# 3ds Max Wavefront OBJ Exporter v0.99 - (c)2007 guruware
# File Created: 15.11.2023 15:45:41

mtllib Basurero.mtl

#
# object subtool6
#

v  45.6414 -48.5715 45.6415
v  45.6414 -2.9300 45.6415
v  -0.0001 -2.9300 45.6415
v  -0.0001 -48.5715 45.6415
v  -0.0001 -2.9300 -45.6415
v  -0.0001 42.7115 -45.6415
v  45.6414 42.7115 -45.6415
v  45.6414 -2.9300 -45.6415
v  -45.6416 42.7115 -45.6415
v  -45.6416 -2.9300 -45.6415
v  -45.6416 -2.9300 45.6415
v  -45.6416 -48.5715 45.6415
v  -45.6416 42.7115 45.6415
v  -0.0001 42.7115 45.6415
v  45.6414 42.7115 45.6415
v  -0.0001 -48.5715 -45.6415
v  45.6414 -48.5715 -45.6415
v  -45.6416 -48.5715 -45.6415
v  -54.3186 -57.2487 35.4989
v  -0.0001 -60.8427 35.4989
v  -60.8264 -63.7564 25.3564
v  -0.0001 -70.0460 25.3564
v  -65.1650 -68.0949 15.2139
v  -0.0001 -76.1819 15.2139
v  -67.3341 -70.2642 5.0713
v  -0.0001 -79.2497 5.0713
v  -67.3341 -70.2642 -5.0712
v  -0.0001 -79.2497 -5.0712
v  -65.1650 -68.0949 -15.2139
v  -0.0001 -76.1819 -15.2139
v  -60.8263 -63.7564 -25.3563
v  -0.0001 -70.0460 -25.3563
v  -54.3186 -57.2487 -35.4989
v  -0.0001 -60.8427 -35.4989
v  54.3185 -57.2487 35.4989
v  60.8264 -63.7564 25.3564
v  65.1648 -68.0949 15.2139
v  67.3341 -70.2642 5.0713
v  67.3341 -70.2642 -5.0712
v  65.1648 -68.0949 -15.2139
v  60.8264 -63.7564 -25.3563
v  54.3185 -57.2487 -35.4989
v  57.9128 -2.9300 35.4989
v  54.3185 51.3887 35.4989
v  67.1162 -2.9300 25.3564
v  60.8264 57.8965 25.3564
v  65.1648 62.2350 15.2139
v  73.2518 -2.9300 15.2139
v  76.3196 -2.9300 5.0713
v  67.3341 64.4043 5.0713
v  76.3196 -2.9300 -5.0712
v  67.3341 64.4043 -5.0712
v  65.1648 62.2350 -15.2139
v  73.2518 -2.9300 -15.2139
v  60.8264 57.8965 -25.3563
v  67.1162 -2.9300 -25.3563
v  54.3185 51.3887 -35.4989
v  57.9128 -2.9300 -35.4989
v  -57.9127 -2.9300 -35.4989
v  -54.3186 51.3887 -35.4989
v  -67.1161 -2.9300 -25.3563
v  -60.8263 57.8965 -25.3563
v  -73.2517 -2.9300 -15.2139
v  -65.1650 62.2350 -15.2139
v  -76.3196 -2.9300 -5.0712
v  -67.3341 64.4043 -5.0712
v  -76.3196 -2.9300 5.0713
v  -67.3341 64.4043 5.0713
v  -73.2517 -2.9300 15.2139
v  -65.1650 62.2350 15.2139
v  -67.1162 -2.9300 25.3564
v  -60.8264 57.8965 25.3564
v  -54.3186 51.3887 35.4989
v  -57.9127 -2.9300 35.4989
v  47.5203 51.8385 35.4989
v  42.4565 46.5269 41.1819
v  -0.0001 47.2354 41.9023
v  49.2731 53.3068 33.1830
v  54.3811 58.5631 25.3564
v  55.5105 59.3956 23.3450
v  59.0212 62.9974 15.2139
v  59.5537 63.2771 13.7756
v  61.4245 65.1930 5.0713
v  61.4245 65.1930 -5.0712
v  59.5537 63.2771 -13.7754
v  59.0212 62.9974 -15.2139
v  55.5105 59.3956 -23.3450
v  54.3811 58.5631 -25.3563
v  49.2731 53.3068 -33.1831
v  47.5203 51.8385 -35.4989
v  42.4565 46.5269 -41.1818
v  -0.0001 47.2354 -41.9026
v  -42.4567 46.5269 41.1819
v  -47.5204 51.8385 35.4989
v  -49.2731 53.3068 33.1830
v  -54.3810 58.5631 25.3564
v  -59.0215 62.9974 15.2139
v  -55.5104 59.3956 23.3450
v  -59.5540 63.2771 13.7756
v  -61.4244 65.1930 5.0713
v  -61.4244 65.1930 -5.0712
v  -59.5540 63.2771 -13.7754
v  -59.0215 62.9974 -15.2139
v  -55.5104 59.3956 -23.3450
v  -54.3810 58.5631 -25.3563
v  -49.2731 53.3068 -33.1831
v  -47.5204 51.8385 -35.4989
v  -42.4568 46.5269 -41.1818
v  47.8496 56.1944 39.4338
v  -0.0110 59.1587 39.6283
v  -0.0001 51.1744 46.2435
v  42.6597 50.4612 45.5178
v  54.9361 63.5620 28.3895
v  -0.0108 68.9410 28.8391
v  49.7640 58.0137 36.6360
v  56.1602 64.6154 25.9242
v  59.7250 68.5193 17.1174
v  -0.0054 75.7090 17.6772
v  60.3067 68.9160 15.1747
v  62.1997 70.9997 5.7810
v  -0.0015 79.2496 6.1267
v  62.1995 70.9997 -5.7828
v  0.0013 79.2496 -6.1266
v  59.6997 68.4352 -17.3468
v  0.0052 75.7090 -17.6776
v  60.2800 68.8884 -15.2999
v  56.1054 64.5287 -26.1125
v  54.8959 63.4442 -28.5703
v  0.0106 68.9410 -28.8390
v  49.6818 57.8716 -36.8402
v  47.7879 56.0306 -39.5980
v  0.0109 59.1587 -39.6284
v  42.6597 50.4612 -45.5178
v  -0.0001 51.1742 -46.2437
v  -47.7881 56.0306 39.5980
v  -42.6599 50.4612 45.5178
v  -49.6819 57.8714 36.8400
v  -54.8959 63.4442 28.5705
v  -56.1053 64.5287 26.1128
v  -59.6999 68.4352 17.3470
v  -60.2803 68.8884 15.3000
v  -62.1995 70.9997 5.7828
v  -62.1997 70.9997 -5.7809
v  -59.7252 68.5193 -17.1174
v  -60.3069 68.9160 -15.1746
v  -54.9360 63.5620 -28.3894
v  -56.1602 64.6154 -25.9241
v  -47.8499 56.1945 -39.4338
v  -49.7640 58.0137 -36.6359
v  -42.6599 50.4612 -45.5178
# 150 vertices

vn 0.0154 -0.4285 0.9034
vn -0.0000 0.0000 1.0000
vn -0.0000 -0.3718 0.9283
vn 0.0000 0.0000 -1.0000
vn -0.0000 0.3802 -0.9249
vn 0.0090 0.4529 -0.8915
vn -0.0090 0.4529 -0.8915
vn 0.0000 0.0000 1.0000
vn -0.0154 -0.4285 0.9034
vn -0.0090 0.4529 0.8915
vn -0.0000 0.3802 0.9249
vn 0.0090 0.4529 0.8915
vn -0.0000 -0.3718 -0.9283
vn 0.0154 -0.4285 -0.9034
vn -0.0154 -0.4285 -0.9034
vn -0.0527 -0.7501 0.6592
vn -0.0000 -0.7382 0.6746
vn -0.0879 -0.8424 0.5317
vn -0.0000 -0.8351 0.5501
vn -0.1143 -0.9293 0.3513
vn -0.0000 -0.9297 0.3682
vn -0.1292 -0.9839 0.1235
vn -0.0000 -0.9914 0.1308
vn -0.1292 -0.9839 -0.1235
vn -0.0000 -0.9914 -0.1308
vn -0.1143 -0.9293 -0.3513
vn -0.0000 -0.9297 -0.3682
vn -0.0879 -0.8424 -0.5317
vn -0.0000 -0.8351 -0.5501
vn -0.0527 -0.7501 -0.6592
vn -0.0000 -0.7382 -0.6746
vn 0.0527 -0.7501 0.6592
vn 0.0879 -0.8424 0.5317
vn 0.1143 -0.9293 0.3513
vn 0.1292 -0.9839 0.1235
vn 0.1292 -0.9839 -0.1235
vn 0.1143 -0.9293 -0.3513
vn 0.0879 -0.8424 -0.5317
vn 0.0527 -0.7501 -0.6592
vn 0.6901 0.0248 0.7233
vn 0.6903 -0.0000 0.7235
vn 0.7381 -0.0000 0.6746
vn 0.7501 0.0527 0.6592
vn 0.8351 -0.0000 0.5501
vn 0.8424 0.0879 0.5317
vn 0.9293 0.1143 0.3513
vn 0.9297 -0.0000 0.3682
vn 0.9914 -0.0000 0.1308
vn 0.9839 0.1292 0.1235
vn 0.9914 -0.0000 -0.1308
vn 0.9839 0.1292 -0.1235
vn 0.9293 0.1143 -0.3512
vn 0.9297 -0.0000 -0.3682
vn 0.8424 0.0879 -0.5317
vn 0.8351 -0.0000 -0.5501
vn 0.7501 0.0527 -0.6592
vn 0.7381 -0.0000 -0.6746
vn 0.6903 -0.0000 -0.7235
vn 0.6901 0.0248 -0.7233
vn -0.7382 -0.0000 -0.6746
vn -0.7501 0.0527 -0.6592
vn -0.6901 0.0248 -0.7233
vn -0.6903 -0.0000 -0.7235
vn -0.8351 -0.0000 -0.5501
vn -0.8424 0.0879 -0.5317
vn -0.9297 -0.0000 -0.3682
vn -0.9293 0.1143 -0.3512
vn -0.9914 -0.0000 -0.1308
vn -0.9839 0.1292 -0.1235
vn -0.9914 -0.0000 0.1308
vn -0.9839 0.1292 0.1235
vn -0.9297 -0.0000 0.3682
vn -0.9293 0.1143 0.3512
vn -0.8351 -0.0000 0.5501
vn -0.8424 0.0879 0.5317
vn -0.7501 0.0527 0.6592
vn -0.7382 -0.0000 0.6746
vn -0.6903 -0.0000 0.7235
vn -0.6901 0.0248 0.7233
vn 0.6901 -0.0248 0.7233
vn 0.7501 -0.0527 0.6592
vn 0.8424 -0.0879 0.5317
vn 0.9293 -0.1143 0.3513
vn 0.9839 -0.1292 0.1235
vn 0.9839 -0.1292 -0.1235
vn 0.9293 -0.1143 -0.3512
vn 0.8424 -0.0879 -0.5317
vn 0.7501 -0.0527 -0.6592
vn 0.6901 -0.0248 -0.7233
vn -0.6901 -0.0248 -0.7233
vn -0.7501 -0.0527 -0.6592
vn -0.8424 -0.0879 -0.5317
vn -0.9293 -0.1143 -0.3512
vn -0.9839 -0.1292 -0.1235
vn -0.9839 -0.1292 0.1235
vn -0.9293 -0.1143 0.3512
vn -0.8424 -0.0879 0.5317
vn -0.7501 -0.0527 0.6592
vn -0.6901 -0.0248 0.7233
vn 0.0483 0.7929 0.6074
vn 0.0297 0.7706 0.6366
vn 0.0144 0.7227 0.6910
vn -0.0000 0.7033 0.7109
vn 0.0608 0.8193 0.5702
vn 0.0875 0.8690 0.4870
vn 0.0767 0.8485 0.5237
vn 0.0970 0.8982 0.4288
vn 0.1145 0.9408 0.3189
vn 0.1090 0.9285 0.3549
vn 0.1218 0.9646 0.2338
vn 0.1287 0.9838 0.1249
vn 0.1292 0.9853 0.1115
vn 0.1292 0.9853 -0.1115
vn 0.1287 0.9838 -0.1249
vn 0.1145 0.9408 -0.3189
vn 0.1218 0.9646 -0.2338
vn 0.1090 0.9285 -0.3549
vn 0.0875 0.8690 -0.4870
vn 0.0970 0.8982 -0.4288
vn 0.0767 0.8485 -0.5237
vn 0.0483 0.7929 -0.6074
vn 0.0608 0.8193 -0.5702
vn 0.0297 0.7706 -0.6367
vn 0.0144 0.7227 -0.6910
vn -0.0000 0.7033 -0.7109
vn -0.0483 0.7929 0.6074
vn -0.0144 0.7227 0.6910
vn -0.0297 0.7706 0.6366
vn -0.0875 0.8690 0.4870
vn -0.0608 0.8193 0.5702
vn -0.0767 0.8485 0.5237
vn -0.1090 0.9285 0.3549
vn -0.1145 0.9408 0.3189
vn -0.0970 0.8982 0.4288
vn -0.1292 0.9853 0.1115
vn -0.1218 0.9646 0.2338
vn -0.1287 0.9838 0.1249
vn -0.1287 0.9838 -0.1249
vn -0.1292 0.9853 -0.1115
vn -0.1218 0.9646 -0.2338
vn -0.1090 0.9285 -0.3549
vn -0.1145 0.9408 -0.3189
vn -0.0970 0.8982 -0.4288
vn -0.0767 0.8485 -0.5237
vn -0.0875 0.8690 -0.4870
vn -0.0608 0.8193 -0.5702
vn -0.0297 0.7706 -0.6367
vn -0.0483 0.7929 -0.6074
vn -0.0144 0.7227 -0.6910
vn 0.0643 0.7563 0.6511
vn -0.0020 0.7121 0.7021
vn 0.0001 0.6720 0.7405
vn 0.0348 0.6718 0.7399
vn -0.0010 -0.7406 0.6720
vn -0.0000 -0.7406 0.6720
vn 0.8466 -0.3918 0.3602
vn 0.8428 -0.4063 0.3530
vn 0.8467 -0.3912 0.3605
vn 0.1000 0.8591 0.5020
vn -0.0024 0.8129 0.5823
vn 0.0840 0.8032 0.5897
vn 0.8861 -0.3098 0.3447
vn 0.8659 -0.3511 0.3563
vn 0.8659 -0.3510 0.3563
vn 0.1115 0.8913 0.4394
vn 0.1218 0.9377 0.3253
vn -0.0013 0.9180 0.3965
vn 0.9355 -0.2193 0.2769
vn 0.9357 -0.2190 0.2767
vn 0.9114 -0.2653 0.3146
vn 0.9114 -0.2652 0.3145
vn 0.1291 0.9625 0.2388
vn 0.1313 0.9849 0.1132
vn -0.0003 0.9898 0.1425
vn 0.9856 -0.1470 0.0837
vn 0.9587 -0.1820 0.2186
vn 0.9587 -0.1819 0.2185
vn 0.1313 0.9848 -0.1135
vn 0.0003 0.9898 -0.1425
vn 0.9856 -0.1470 -0.0838
vn 0.9856 -0.1470 -0.0837
vn 0.1160 0.9295 -0.3502
vn 0.0013 0.9180 -0.3965
vn 0.1241 0.9572 -0.2613
vn 0.9364 -0.2239 -0.2702
vn 0.9362 -0.2244 -0.2705
vn 0.9596 -0.1835 -0.2133
vn 0.9600 -0.1830 -0.2121
vn 0.1026 0.8769 -0.4696
vn 0.0889 0.8389 -0.5370
vn 0.0024 0.8129 -0.5823
vn 0.8860 -0.3166 -0.3389
vn 0.8857 -0.3173 -0.3389
vn 0.9105 -0.2725 -0.3110
vn 0.9113 -0.2712 -0.3097
vn 0.0719 0.7820 -0.6191
vn 0.0490 0.7271 -0.6848
vn 0.0020 0.7121 -0.7021
vn 0.8648 -0.3597 -0.3504
vn 0.8656 -0.3583 -0.3498
vn 0.8455 -0.3982 -0.3558
vn 0.8451 -0.3994 -0.3554
vn 0.0347 0.6714 -0.7402
vn -0.0001 0.6720 -0.7405
vn 0.0000 -0.7406 -0.6720
vn -0.0009 -0.7406 -0.6720
vn 0.8404 -0.4130 -0.3510
vn -0.0491 0.7271 0.6848
vn -0.0347 0.6714 0.7402
vn 0.0010 -0.7406 0.6720
vn -0.8404 -0.4130 0.3509
vn -0.8451 -0.3994 0.3553
vn -0.8455 -0.3982 0.3557
vn -0.0719 0.7820 0.6191
vn -0.8648 -0.3597 0.3504
vn -0.8656 -0.3583 0.3498
vn -0.0889 0.8389 0.5370
vn -0.8857 -0.3173 0.3389
vn -0.8860 -0.3166 0.3388
vn -0.1026 0.8769 0.4696
vn -0.9105 -0.2725 0.3110
vn -0.9113 -0.2712 0.3097
vn -0.1160 0.9295 0.3502
vn -0.9364 -0.2239 0.2702
vn -0.9362 -0.2244 0.2705
vn -0.1241 0.9572 0.2613
vn -0.9596 -0.1835 0.2133
vn -0.9600 -0.1829 0.2121
vn -0.1313 0.9848 0.1135
vn -0.9856 -0.1470 0.0838
vn -0.9856 -0.1470 0.0837
vn -0.1313 0.9849 -0.1132
vn -0.9856 -0.1470 -0.0837
vn -0.1218 0.9377 -0.3253
vn -0.1291 0.9625 -0.2388
vn -0.9587 -0.1820 -0.2186
vn -0.9587 -0.1819 -0.2185
vn -0.9355 -0.2193 -0.2769
vn -0.9357 -0.2190 -0.2768
vn -0.1000 0.8591 -0.5020
vn -0.1115 0.8913 -0.4394
vn -0.9114 -0.2653 -0.3146
vn -0.9114 -0.2652 -0.3145
vn -0.8861 -0.3098 -0.3447
vn -0.0643 0.7563 -0.6511
vn -0.0840 0.8032 -0.5897
vn -0.8659 -0.3511 -0.3563
vn -0.8659 -0.3510 -0.3563
vn -0.8466 -0.3918 -0.3602
vn -0.8467 -0.3912 -0.3605
vn -0.0348 0.6718 -0.7399
vn -0.8428 -0.4063 -0.3530
vn 0.0009 -0.7406 -0.6720
# 253 vertex normals

vt 0.3034 0.5004 0.0000
vt 0.1903 0.4946 0.0000
vt 0.1946 0.3824 0.0000
vt 0.3079 0.3866 0.0000
vt 0.1515 0.8720 0.0000
vt 0.0393 0.8558 0.0000
vt 0.0549 0.7446 0.0000
vt 0.1669 0.7606 0.0000
vt 0.0235 0.9677 0.0000
vt 0.1356 0.9838 0.0000
vt 0.1985 0.2701 0.0000
vt 0.3117 0.2728 0.0000
vt 0.0854 0.2659 0.0000
vt 0.0812 0.3782 0.0000
vt 0.0771 0.4904 0.0000
vt 0.2636 0.8874 0.0000
vt 0.2793 0.7746 0.0000
vt 0.2478 0.9995 0.0000
vt 0.5617 0.7240 0.0000
vt 0.5805 0.7598 0.0000
vt 0.4441 0.7530 0.0000
vt 0.4460 0.7133 0.0000
vt 0.5941 0.7918 0.0000
vt 0.4425 0.7863 0.0000
vt 0.6027 0.8207 0.0000
vt 0.4411 0.8147 0.0000
vt 0.6063 0.8473 0.0000
vt 0.4399 0.8400 0.0000
vt 0.6050 0.8730 0.0000
vt 0.4388 0.8643 0.0000
vt 0.5989 0.8992 0.0000
vt 0.4376 0.8896 0.0000
vt 0.5876 0.9271 0.0000
vt 0.4362 0.9181 0.0000
vt 0.5709 0.9576 0.0000
vt 0.4346 0.9514 0.0000
vt 0.4327 0.9910 0.0000
vt 0.5488 0.9914 0.0000
vt 0.3078 0.7468 0.0000
vt 0.3299 0.7129 0.0000
vt 0.2912 0.7773 0.0000
vt 0.2799 0.8051 0.0000
vt 0.2737 0.8313 0.0000
vt 0.2724 0.8570 0.0000
vt 0.2761 0.8836 0.0000
vt 0.2847 0.9125 0.0000
vt 0.2983 0.9445 0.0000
vt 0.3171 0.9803 0.0000
vt 0.1885 0.5327 0.0000
vt 0.0538 0.5212 0.0000
vt 0.1869 0.5651 0.0000
vt 0.0361 0.5501 0.0000
vt 0.0236 0.5766 0.0000
vt 0.1854 0.5925 0.0000
vt 0.1838 0.6165 0.0000
vt 0.0168 0.6012 0.0000
vt 0.1818 0.6393 0.0000
vt 0.0147 0.6251 0.0000
vt 0.0171 0.6505 0.0000
vt 0.1792 0.6633 0.0000
vt 0.0248 0.6786 0.0000
vt 0.1759 0.6905 0.0000
vt 0.0373 0.7102 0.0000
vt 0.1719 0.7226 0.0000
vt 0.1979 0.0395 0.0000
vt 0.0628 0.0436 0.0000
vt 0.0821 0.0091 0.0000
vt 0.1963 0.0005 0.0000
vt 0.1992 0.0724 0.0000
vt 0.0478 0.0742 0.0000
vt 0.2003 0.1001 0.0000
vt 0.0378 0.1016 0.0000
vt 0.2010 0.1245 0.0000
vt 0.0333 0.1268 0.0000
vt 0.2012 0.1476 0.0000
vt 0.0335 0.1508 0.0000
vt 0.2009 0.1719 0.0000
vt 0.0384 0.1759 0.0000
vt 0.2004 0.1995 0.0000
vt 0.0488 0.2032 0.0000
vt 0.0644 0.2334 0.0000
vt 0.1996 0.2319 0.0000
vt 0.3235 0.5359 0.0000
vt 0.3384 0.5688 0.0000
vt 0.3477 0.5995 0.0000
vt 0.3513 0.6286 0.0000
vt 0.3489 0.6567 0.0000
vt 0.3403 0.6847 0.0000
vt 0.3257 0.7133 0.0000
vt 0.3054 0.7431 0.0000
vt 0.3106 0.0007 0.0000
vt 0.3328 0.0340 0.0000
vt 0.3505 0.0649 0.0000
vt 0.3626 0.0941 0.0000
vt 0.3689 0.1222 0.0000
vt 0.3691 0.1500 0.0000
vt 0.3633 0.1783 0.0000
vt 0.3516 0.2077 0.0000
vt 0.3344 0.2391 0.0000
vt 0.0467 0.5057 0.0000
vt 0.0619 0.4850 0.0000
vt 0.0665 0.3776 0.0000
vt 0.0414 0.5136 0.0000
vt 0.0265 0.5373 0.0000
vt 0.0228 0.5441 0.0000
vt 0.0117 0.5672 0.0000
vt 0.0095 0.5729 0.0000
vt 0.0030 0.5976 0.0000
vt 0.0005 0.6262 0.0000
vt 0.0027 0.6516 0.0000
vt 0.0038 0.6576 0.0000
vt 0.0108 0.6823 0.0000
vt 0.0132 0.6896 0.0000
vt 0.0238 0.7155 0.0000
vt 0.0275 0.7243 0.0000
vt 0.0390 0.7472 0.0000
vt 0.0249 0.8535 0.0000
vt 0.0698 0.2701 0.0000
vt 0.0561 0.2484 0.0000
vt 0.0515 0.2401 0.0000
vt 0.0383 0.2152 0.0000
vt 0.0259 0.1843 0.0000
vt 0.0352 0.2082 0.0000
vt 0.0241 0.1784 0.0000
vt 0.0195 0.1533 0.0000
vt 0.0193 0.1246 0.0000
vt 0.0234 0.0994 0.0000
vt 0.0251 0.0935 0.0000
vt 0.0340 0.0694 0.0000
vt 0.0370 0.0624 0.0000
vt 0.0496 0.0375 0.0000
vt 0.0537 0.0296 0.0000
vt 0.0102 0.9578 0.0000
vt 0.0652 0.0091 0.0000
vt 0.9658 0.0389 0.0000
vt 0.8470 0.0323 0.0000
vt 0.8490 0.0068 0.0000
vt 0.9547 0.0170 0.0000
vt 0.5560 0.7049 0.0000
vt 0.4468 0.7067 0.0000
vt 0.4468 0.6956 0.0000
vt 0.5555 0.6938 0.0000
vt 0.3381 0.0257 0.0000
vt 0.3222 0.0108 0.0000
vt 0.3335 0.0005 0.0000
vt 0.3483 0.0143 0.0000
vt 0.9810 0.0739 0.0000
vt 0.8441 0.0680 0.0000
vt 0.9701 0.0478 0.0000
vt 0.3748 0.0319 0.0000
vt 0.3669 0.0449 0.0000
vt 0.3454 0.0304 0.0000
vt 0.3544 0.0182 0.0000
vt 0.9837 0.0813 0.0000
vt 0.9906 0.1066 0.0000
vt 0.8416 0.0993 0.0000
vt 0.4012 0.0434 0.0000
vt 0.3962 0.0578 0.0000
vt 0.3733 0.0476 0.0000
vt 0.3800 0.0340 0.0000
vt 0.9917 0.1124 0.0000
vt 0.9944 0.1375 0.0000
vt 0.8394 0.1276 0.0000
vt 0.4276 0.0491 0.0000
vt 0.4258 0.0643 0.0000
vt 0.4013 0.0588 0.0000
vt 0.4050 0.0442 0.0000
vt 0.9922 0.1678 0.0000
vt 0.8373 0.1562 0.0000
vt 0.4559 0.0643 0.0000
vt 0.4541 0.0491 0.0000
vt 0.9834 0.1996 0.0000
vt 0.8351 0.1846 0.0000
vt 0.9857 0.1932 0.0000
vt 0.4805 0.0434 0.0000
vt 0.4861 0.0576 0.0000
vt 0.4807 0.0588 0.0000
vt 0.4768 0.0442 0.0000
vt 0.9725 0.2240 0.0000
vt 0.9685 0.2313 0.0000
vt 0.8326 0.2158 0.0000
vt 0.5069 0.0319 0.0000
vt 0.5153 0.0446 0.0000
vt 0.5089 0.0474 0.0000
vt 0.5017 0.0340 0.0000
vt 0.9536 0.2558 0.0000
vt 0.9478 0.2639 0.0000
vt 0.8297 0.2515 0.0000
vt 0.5369 0.0301 0.0000
vt 0.5273 0.0182 0.0000
vt 0.5334 0.0143 0.0000
vt 0.5440 0.0253 0.0000
vt 0.9336 0.2833 0.0000
vt 0.8277 0.2770 0.0000
vt 0.8375 0.2839 0.0000
vt 0.9467 0.2858 0.0000
vt 0.9462 0.2969 0.0000
vt 0.8375 0.2950 0.0000
vt 0.5595 0.0108 0.0000
vt 0.5482 0.0005 0.0000
vt 0.7289 0.0199 0.0000
vt 0.7431 0.0005 0.0000
vt 0.3381 0.6938 0.0000
vt 0.3376 0.7049 0.0000
vt 0.8125 0.9274 0.0000
vt 0.8238 0.9377 0.0000
vt 0.8083 0.9522 0.0000
vt 0.7976 0.9412 0.0000
vt 0.7231 0.0280 0.0000
vt 0.8011 0.9570 0.0000
vt 0.7916 0.9451 0.0000
vt 0.7081 0.0525 0.0000
vt 0.7796 0.9715 0.0000
vt 0.7712 0.9588 0.0000
vt 0.7041 0.0598 0.0000
vt 0.7732 0.9743 0.0000
vt 0.7660 0.9609 0.0000
vt 0.6933 0.0842 0.0000
vt 0.7448 0.9703 0.0000
vt 0.7503 0.9845 0.0000
vt 0.6910 0.0906 0.0000
vt 0.7450 0.9857 0.0000
vt 0.7410 0.9710 0.0000
vt 0.6844 0.1161 0.0000
vt 0.7202 0.9912 0.0000
vt 0.7184 0.9760 0.0000
vt 0.6823 0.1463 0.0000
vt 0.6901 0.9912 0.0000
vt 0.6919 0.9760 0.0000
vt 0.6861 0.1772 0.0000
vt 0.6850 0.1714 0.0000
vt 0.6656 0.9857 0.0000
vt 0.6692 0.9710 0.0000
vt 0.6655 0.9703 0.0000
vt 0.6605 0.9847 0.0000
vt 0.6957 0.2099 0.0000
vt 0.6930 0.2025 0.0000
vt 0.6376 0.9745 0.0000
vt 0.6443 0.9609 0.0000
vt 0.6312 0.9718 0.0000
vt 0.6391 0.9588 0.0000
vt 0.7109 0.2449 0.0000
vt 0.7066 0.2360 0.0000
vt 0.6097 0.9573 0.0000
vt 0.6187 0.9451 0.0000
vt 0.6024 0.9526 0.0000
vt 0.6126 0.9412 0.0000
vt 0.7220 0.2668 0.0000
vt 0.5865 0.9377 0.0000
vt 0.5978 0.9274 0.0000
vt 0.7288 0.2969 0.0000
vt 0.7282 0.2858 0.0000
# 252 texture coords

o subtool6
g subtool6
usemtl default
s 1
f 1/1/1 2/2/2 3/3/2 4/4/3 
f 5/5/4 6/6/5 7/7/6 8/8/4 
f 9/9/7 6/6/5 5/5/4 10/10/4 
f 4/4/3 3/3/2 11/11/8 12/12/9 
f 13/13/10 11/11/8 3/3/2 14/14/11 
f 15/15/12 14/14/11 3/3/2 2/2/2 
f 16/16/13 5/5/4 8/8/4 17/17/14 
f 16/16/13 18/18/15 10/10/4 5/5/4 
f 12/19/9 19/20/16 20/21/17 4/22/3 
f 19/20/16 21/23/18 22/24/19 20/21/17 
f 21/23/18 23/25/20 24/26/21 22/24/19 
f 23/25/20 25/27/22 26/28/23 24/26/21 
f 26/28/23 25/27/22 27/29/24 28/30/25 
f 28/30/25 27/29/24 29/31/26 30/32/27 
f 31/33/28 32/34/29 30/32/27 29/31/26 
f 33/35/30 34/36/31 32/34/29 31/33/28 
f 16/37/13 34/36/31 33/35/30 18/38/15 
f 4/22/3 20/21/17 35/39/32 1/40/1 
f 20/21/17 22/24/19 36/41/33 35/39/32 
f 36/41/33 22/24/19 24/26/21 37/42/34 
f 38/43/35 37/42/34 24/26/21 26/28/23 
f 38/43/35 26/28/23 28/30/25 39/44/36 
f 28/30/25 30/32/27 40/45/37 39/44/36 
f 41/46/38 40/45/37 30/32/27 32/34/29 
f 41/46/38 32/34/29 34/36/31 42/47/39 
f 16/37/13 17/48/14 42/47/39 34/36/31 
f 15/15/40 2/2/41 43/49/42 44/50/43 
f 43/49/42 45/51/44 46/52/45 44/50/43 
f 47/53/46 46/52/45 45/51/44 48/54/47 
f 48/54/47 49/55/48 50/56/49 47/53/46 
f 49/55/48 51/57/50 52/58/51 50/56/49 
f 53/59/52 52/58/51 51/57/50 54/60/53 
f 55/61/54 53/59/52 54/60/53 56/62/55 
f 57/63/56 55/61/54 56/62/55 58/64/57 
f 58/64/57 8/8/58 7/7/59 57/63/56 
f 59/65/60 60/66/61 9/67/62 10/68/63 
f 59/65/60 61/69/64 62/70/65 60/66/61 
f 62/70/65 61/69/64 63/71/66 64/72/67 
f 63/71/66 65/73/68 66/74/69 64/72/67 
f 66/74/69 65/73/68 67/75/70 68/76/71 
f 67/75/70 69/77/72 70/78/73 68/76/71 
f 69/77/72 71/79/74 72/80/75 70/78/73 
f 73/81/76 72/80/75 71/79/74 74/82/77 
f 74/82/77 11/11/78 13/13/79 73/81/76 
f 1/1/80 35/83/81 43/49/42 2/2/41 
f 35/83/81 36/84/82 45/51/44 43/49/42 
f 48/54/47 45/51/44 36/84/82 37/85/83 
f 37/85/83 38/86/84 49/55/48 48/54/47 
f 39/87/85 51/57/50 49/55/48 38/86/84 
f 51/57/50 39/87/85 40/88/86 54/60/53 
f 41/89/87 56/62/55 54/60/53 40/88/86 
f 42/90/88 58/64/57 56/62/55 41/89/87 
f 17/17/89 8/8/58 58/64/57 42/90/88 
f 18/91/90 33/92/91 59/65/60 10/68/63 
f 33/92/91 31/93/92 61/69/64 59/65/60 
f 61/69/64 31/93/92 29/94/93 63/71/66 
f 27/95/94 65/73/68 63/71/66 29/94/93 
f 27/95/94 25/96/95 67/75/70 65/73/68 
f 23/97/96 69/77/72 67/75/70 25/96/95 
f 71/79/74 69/77/72 23/97/96 21/98/97 
f 71/79/74 21/98/97 19/99/98 74/82/77 
f 19/99/98 12/12/99 11/11/78 74/82/77 
f 44/50/100 75/100/101 76/101/102 15/15/12 
f 77/102/103 14/14/11 15/15/12 76/101/102 
f 78/103/104 75/100/101 44/50/100 
f 44/50/100 46/52/105 79/104/106 78/103/104 
f 80/105/107 79/104/106 46/52/105 
f 47/53/108 81/106/109 80/105/107 46/52/105 
f 82/107/110 81/106/109 47/53/108 
f 83/108/111 82/107/110 47/53/108 50/56/112 
f 50/56/112 52/58/113 84/109/114 83/108/111 
f 53/59/115 85/110/116 84/109/114 52/58/113 
f 85/110/116 53/59/115 86/111/117 
f 86/111/117 53/59/115 55/61/118 87/112/119 
f 87/112/119 55/61/118 88/113/120 
f 88/113/120 55/61/118 57/63/121 89/114/122 
f 89/114/122 57/63/121 90/115/123 
f 90/115/123 57/63/121 7/7/6 91/116/124 
f 92/117/125 91/116/124 7/7/6 6/6/5 
f 73/81/126 13/13/10 93/118/127 94/119/128 
f 93/118/127 13/13/10 14/14/11 77/102/103 
f 72/80/129 73/81/126 95/120/130 96/121/131 
f 95/120/130 73/81/126 94/119/128 
f 97/122/132 70/78/133 72/80/129 98/123/134 
f 98/123/134 72/80/129 96/121/131 
f 68/76/135 70/78/133 99/124/136 100/125/137 
f 99/124/136 70/78/133 97/122/132 
f 68/76/135 100/125/137 101/126/138 66/74/139 
f 102/127/140 103/128/141 64/72/142 
f 102/127/140 64/72/142 66/74/139 101/126/138 
f 104/129/143 105/130/144 62/70/145 
f 64/72/142 103/128/141 104/129/143 62/70/145 
f 106/131/146 107/132/147 60/66/148 
f 106/131/146 60/66/148 62/70/145 105/130/144 
f 6/6/5 9/9/7 108/133/149 92/117/125 
f 60/66/148 107/132/147 108/134/149 9/67/7 
f 109/135/150 110/136/151 111/137/152 112/138/153 
s 2
f 112/139/154 111/140/155 77/141/155 76/142/154 
s 4
f 109/143/156 112/144/157 76/145/157 75/146/158 
s 1
f 113/147/159 114/148/160 109/135/150 115/149/161 
s 4
f 79/150/162 113/151/162 115/152/163 78/153/164 
f 78/153/164 115/152/163 109/143/156 75/146/158 
s 1
f 109/135/150 114/148/160 110/136/151 
f 113/147/159 116/154/165 117/155/166 118/156/167 
s 4
f 81/157/168 117/158/169 116/159/170 80/160/171 
f 79/150/162 80/160/171 116/159/170 113/151/162 
s 1
f 113/147/159 118/156/167 114/148/160 
f 117/155/166 119/161/172 120/162/173 121/163/174 
s 4
f 83/164/175 120/165/175 119/166/176 82/167/177 
f 81/157/168 82/167/177 119/166/176 117/158/169 
s 1
f 117/155/166 121/163/174 118/156/167 
f 120/162/173 122/168/178 123/169/179 121/163/174 
s 4
f 122/170/180 120/165/175 83/164/175 84/171/181 
s 1
f 124/172/182 125/173/183 123/169/179 126/174/184 
s 4
f 86/175/185 124/176/186 126/177/187 85/178/188 
s 1
f 126/174/184 123/169/179 122/168/178 
s 4
f 126/177/187 122/170/180 84/171/181 85/178/188 
s 1
f 127/179/189 128/180/190 129/181/191 125/173/183 
s 4
f 88/182/192 128/183/193 127/184/194 87/185/195 
s 1
f 127/179/189 125/173/183 124/172/182 
s 4
f 87/185/195 127/184/194 124/176/186 86/175/185 
s 1
f 130/186/196 131/187/197 132/188/198 129/181/191 
s 4
f 130/189/199 89/190/200 90/191/201 131/192/202 
s 1
f 130/186/196 129/181/191 128/180/190 
s 4
f 89/190/200 130/189/199 128/183/193 88/182/192 
s 1
f 133/193/203 134/194/204 132/188/198 131/187/197 
s 2
f 134/195/205 133/196/206 91/197/206 92/198/205 
s 4
f 133/199/207 131/192/202 90/191/201 91/200/207 
s 1
f 110/136/151 135/201/208 136/202/209 111/137/152 
s 2
f 93/203/210 77/141/155 111/140/155 136/204/210 
s 4
f 93/205/211 136/206/211 135/207/212 94/208/213 
s 1
f 110/136/151 114/148/160 137/209/214 135/201/208 
s 4
f 94/208/213 135/207/212 137/210/215 95/211/216 
s 1
f 137/209/214 114/148/160 138/212/217 
s 4
f 137/210/215 138/213/218 96/214/219 95/211/216 
s 1
f 114/148/160 118/156/167 139/215/220 138/212/217 
s 4
f 139/216/221 98/217/222 96/214/219 138/213/218 
s 1
f 139/215/220 118/156/167 140/218/223 
s 4
f 97/219/224 98/217/222 139/216/221 140/220/225 
s 1
f 140/218/223 118/156/167 121/163/174 141/221/226 
s 4
f 140/220/225 141/222/227 99/223/228 97/219/224 
s 1
f 141/221/226 121/163/174 142/224/229 
s 4
f 99/223/228 141/222/227 142/225/230 100/226/231 
s 1
f 123/169/179 143/227/232 142/224/229 121/163/174 
s 4
f 100/226/231 142/225/230 143/228/233 101/229/233 
s 1
f 143/227/232 123/169/179 144/230/234 145/231/235 
s 4
f 143/228/233 145/232/236 102/233/237 101/229/233 
f 103/234/238 102/233/237 145/232/236 144/235/239 
s 1
f 144/230/234 123/169/179 125/173/183 
f 144/230/234 125/173/183 146/236/240 147/237/241 
s 4
f 144/235/239 147/238/242 104/239/243 103/234/238 
f 146/240/244 105/241/244 104/239/243 147/238/242 
s 1
f 146/236/240 125/173/183 129/181/191 
f 146/236/240 129/181/191 148/242/245 149/243/246 
s 4
f 146/240/244 149/244/247 106/245/248 105/241/244 
f 149/244/247 148/246/249 107/247/250 106/245/248 
s 1
f 148/242/245 129/181/191 132/188/198 
f 134/194/204 150/248/251 148/242/245 132/188/198 
s 4
f 148/246/249 150/249/252 108/250/252 107/247/250 
s 2
f 92/198/205 108/251/253 150/252/253 134/195/205 
# 136 polygons - 24 triangles

