# 3ds Max Wavefront OBJ Exporter v0.99 - (c)2007 guruware
# File Created: 05.11.2023 19:50:30

mtllib Basurero.mtl

#
# object subtool6
#

v  45.6414 -48.5715 45.6416
v  45.6414 -2.9300 45.6416
v  -0.0001 -2.9300 45.6415
v  -0.0001 -48.5715 45.6415
v  -0.0001 -2.9300 -45.6414
v  -0.0001 42.7116 -45.6414
v  45.6414 42.7116 -45.6414
v  45.6414 -2.9300 -45.6414
v  -45.6416 -2.9300 -45.6414
v  -45.6416 42.7116 -45.6414
v  -45.6416 -2.9300 45.6415
v  -45.6416 -48.5715 45.6415
v  -0.0001 42.7116 45.6415
v  -45.6416 42.7116 45.6415
v  45.6414 42.7116 45.6416
v  -0.0001 -48.5715 -45.6414
v  45.6414 -48.5715 -45.6414
v  -45.6416 -48.5715 -45.6414
v  -54.3186 -57.2486 35.4989
v  -0.0001 -60.8426 35.4989
v  -60.8264 -63.7564 25.3564
v  -0.0001 -70.0460 25.3564
v  -65.1650 -68.0948 15.2140
v  -0.0001 -76.1818 15.2138
v  -67.3341 -70.2641 5.0714
v  -0.0001 -79.2497 5.0714
v  -67.3341 -70.2641 -5.0711
v  -0.0001 -79.2497 -5.0711
v  -65.1650 -68.0948 -15.2138
v  -0.0001 -76.1818 -15.2138
v  -60.8263 -63.7564 -25.3563
v  -0.0001 -70.0460 -25.3563
v  -54.3186 -57.2486 -35.4989
v  -0.0001 -60.8426 -35.4989
v  54.3185 -57.2486 35.4989
v  60.8264 -63.7564 25.3564
v  65.1648 -68.0948 15.2140
v  67.3341 -70.2641 5.0714
v  67.3341 -70.2641 -5.0711
v  65.1648 -68.0948 -15.2138
v  60.8264 -63.7564 -25.3563
v  54.3185 -57.2486 -35.4989
v  57.9128 -2.9300 35.4989
v  54.3185 51.3887 35.4989
v  67.1162 -2.9300 25.3564
v  60.8264 57.8965 25.3564
v  73.2518 -2.9300 15.2140
v  65.1648 62.2350 15.2140
v  76.3196 -2.9300 5.0714
v  67.3341 64.4043 5.0714
v  76.3196 -2.9300 -5.0711
v  67.3341 64.4043 -5.0711
v  73.2518 -2.9300 -15.2138
v  65.1648 62.2350 -15.2138
v  67.1162 -2.9300 -25.3563
v  60.8264 57.8965 -25.3563
v  57.9128 -2.9300 -35.4989
v  54.3185 51.3887 -35.4989
v  -57.9128 -2.9300 -35.4989
v  -54.3186 51.3887 -35.4989
v  -67.1161 -2.9300 -25.3563
v  -60.8263 57.8965 -25.3563
v  -73.2517 -2.9300 -15.2138
v  -65.1650 62.2350 -15.2138
v  -76.3195 -2.9300 -5.0711
v  -67.3341 64.4043 -5.0711
v  -76.3195 -2.9300 5.0714
v  -67.3341 64.4043 5.0714
v  -73.2517 -2.9300 15.2140
v  -65.1650 62.2350 15.2140
v  -67.1162 -2.9300 25.3564
v  -60.8264 57.8965 25.3564
v  -57.9128 -2.9300 35.4989
v  -54.3186 51.3887 35.4989
v  47.5202 51.8385 35.4989
v  42.4565 46.5270 41.1819
v  -0.0001 47.2354 41.9024
v  49.2731 53.3068 33.1830
v  54.3811 58.5631 25.3564
v  55.5105 59.3956 23.3450
v  59.0212 62.9974 15.2140
v  59.5536 63.2772 13.7756
v  61.4245 65.1930 5.0714
v  61.4245 65.1930 -5.0711
v  59.5536 63.2772 -13.7754
v  59.0212 62.9974 -15.2138
v  55.5105 59.3956 -23.3449
v  54.3811 58.5631 -25.3563
v  49.2731 53.3068 -33.1831
v  47.5202 51.8385 -35.4989
v  42.4565 46.5270 -41.1818
v  -0.0001 47.2354 -41.9025
v  -47.5204 51.8385 35.4989
v  -42.4567 46.5270 41.1819
v  -54.3810 58.5631 25.3564
v  -49.2731 53.3068 33.1830
v  -59.0215 62.9974 15.2140
v  -55.5104 59.3956 23.3450
v  -61.4245 65.1930 5.0714
v  -59.5540 63.2772 13.7757
v  -61.4245 65.1930 -5.0711
v  -59.5540 63.2772 -13.7754
v  -59.0215 62.9974 -15.2138
v  -55.5104 59.3956 -23.3449
v  -54.3810 58.5631 -25.3563
v  -49.2731 53.3068 -33.1831
v  -47.5204 51.8385 -35.4989
v  -42.4568 46.5270 -41.1818
v  42.6597 50.4613 45.5179
v  47.8495 56.1944 39.4339
v  -0.0111 59.1587 39.6283
v  -0.0001 51.1744 46.2436
v  54.9361 63.5620 28.3896
v  -0.0108 68.9411 28.8391
v  49.7640 58.0138 36.6360
v  59.7250 68.5194 17.1175
v  -0.0054 75.7090 17.6773
v  56.1602 64.6154 25.9242
v  62.1997 70.9998 5.7811
v  -0.0014 79.2497 6.1268
v  60.3067 68.9160 15.1747
v  62.1995 70.9998 -5.7828
v  0.0013 79.2497 -6.1265
v  60.2800 68.8884 -15.2999
v  59.6997 68.4352 -17.3468
v  0.0052 75.7090 -17.6776
v  56.1054 64.5287 -26.1125
v  54.8959 63.4442 -28.5703
v  0.0106 68.9411 -28.8390
v  49.6818 57.8717 -36.8401
v  47.7879 56.0307 -39.5980
v  0.0109 59.1587 -39.6284
v  42.6597 50.4613 -45.5178
v  -0.0001 51.1742 -46.2436
v  -47.7881 56.0307 39.5980
v  -42.6599 50.4613 45.5179
v  -49.6819 57.8714 36.8401
v  -54.8958 63.4442 28.5706
v  -56.1053 64.5287 26.1128
v  -59.6999 68.4352 17.3471
v  -60.2802 68.8884 15.3001
v  -62.1994 70.9998 5.7829
v  -62.1997 70.9998 -5.7809
v  -59.7252 68.5194 -17.1173
v  -60.3069 68.9160 -15.1746
v  -54.9361 63.5620 -28.3894
v  -56.1602 64.6154 -25.9240
v  -47.8499 56.1945 -39.4338
v  -49.7640 58.0138 -36.6359
v  -42.6599 50.4613 -45.5178
# 150 vertices

vn 0.0154 -0.4285 0.9034
vn -0.0000 0.0000 1.0000
vn -0.0000 -0.3718 0.9283
vn 0.0000 0.0000 -1.0000
vn -0.0000 0.3802 -0.9249
vn 0.0090 0.4529 -0.8915
vn -0.0090 0.4529 -0.8915
vn 0.0000 0.0000 1.0000
vn -0.0154 -0.4285 0.9034
vn -0.0000 0.3802 0.9249
vn -0.0090 0.4529 0.8915
vn 0.0090 0.4529 0.8915
vn -0.0000 -0.3718 -0.9283
vn 0.0154 -0.4285 -0.9034
vn -0.0154 -0.4285 -0.9034
vn -0.0527 -0.7501 0.6592
vn -0.0000 -0.7382 0.6746
vn -0.0879 -0.8424 0.5317
vn -0.0000 -0.8351 0.5501
vn -0.1143 -0.9293 0.3513
vn -0.0000 -0.9297 0.3682
vn -0.1292 -0.9839 0.1235
vn -0.0000 -0.9914 0.1308
vn -0.1292 -0.9839 -0.1235
vn -0.0000 -0.9914 -0.1308
vn -0.1143 -0.9293 -0.3513
vn -0.0000 -0.9297 -0.3682
vn -0.0879 -0.8424 -0.5317
vn -0.0000 -0.8351 -0.5501
vn -0.0527 -0.7501 -0.6592
vn -0.0000 -0.7382 -0.6746
vn 0.0527 -0.7501 0.6592
vn 0.0879 -0.8424 0.5317
vn 0.1143 -0.9293 0.3513
vn 0.1292 -0.9839 0.1235
vn 0.1292 -0.9839 -0.1235
vn 0.1143 -0.9293 -0.3513
vn 0.0879 -0.8424 -0.5317
vn 0.0527 -0.7501 -0.6592
vn 0.7381 -0.0000 0.6746
vn 0.7501 0.0527 0.6592
vn 0.6901 0.0248 0.7233
vn 0.6903 -0.0000 0.7235
vn 0.8351 -0.0000 0.5501
vn 0.8424 0.0879 0.5317
vn 0.9297 -0.0000 0.3682
vn 0.9293 0.1143 0.3513
vn 0.9914 -0.0000 0.1308
vn 0.9839 0.1292 0.1235
vn 0.9914 -0.0000 -0.1308
vn 0.9839 0.1292 -0.1235
vn 0.9297 -0.0000 -0.3682
vn 0.9293 0.1143 -0.3512
vn 0.8351 -0.0000 -0.5501
vn 0.8424 0.0879 -0.5317
vn 0.7381 -0.0000 -0.6746
vn 0.7501 0.0527 -0.6592
vn 0.6903 -0.0000 -0.7235
vn 0.6901 0.0248 -0.7233
vn -0.7382 -0.0000 -0.6746
vn -0.7501 0.0527 -0.6592
vn -0.6901 0.0248 -0.7233
vn -0.6903 -0.0000 -0.7235
vn -0.8351 -0.0000 -0.5501
vn -0.8424 0.0879 -0.5317
vn -0.9297 -0.0000 -0.3682
vn -0.9293 0.1143 -0.3512
vn -0.9914 -0.0000 -0.1308
vn -0.9839 0.1292 -0.1235
vn -0.9914 -0.0000 0.1308
vn -0.9839 0.1292 0.1235
vn -0.9297 -0.0000 0.3682
vn -0.9293 0.1143 0.3512
vn -0.8351 -0.0000 0.5501
vn -0.8424 0.0879 0.5317
vn -0.7382 -0.0000 0.6746
vn -0.7501 0.0527 0.6592
vn -0.6903 -0.0000 0.7235
vn -0.6901 0.0248 0.7233
vn 0.6901 -0.0248 0.7233
vn 0.7501 -0.0527 0.6592
vn 0.8424 -0.0879 0.5317
vn 0.9293 -0.1143 0.3513
vn 0.9839 -0.1292 0.1235
vn 0.9839 -0.1292 -0.1235
vn 0.9293 -0.1143 -0.3512
vn 0.8424 -0.0879 -0.5317
vn 0.7501 -0.0527 -0.6592
vn 0.6901 -0.0248 -0.7233
vn -0.6901 -0.0248 -0.7233
vn -0.7501 -0.0527 -0.6592
vn -0.8424 -0.0879 -0.5317
vn -0.9293 -0.1143 -0.3512
vn -0.9839 -0.1292 -0.1235
vn -0.9839 -0.1292 0.1235
vn -0.9293 -0.1143 0.3512
vn -0.8424 -0.0879 0.5317
vn -0.7501 -0.0527 0.6592
vn -0.6901 -0.0248 0.7233
vn 0.0483 0.7929 0.6074
vn 0.0297 0.7706 0.6366
vn 0.0144 0.7227 0.6910
vn -0.0000 0.7033 0.7109
vn 0.0608 0.8193 0.5702
vn 0.0875 0.8690 0.4870
vn 0.0767 0.8485 0.5237
vn 0.0970 0.8982 0.4288
vn 0.1145 0.9408 0.3189
vn 0.1090 0.9285 0.3549
vn 0.1218 0.9646 0.2338
vn 0.1292 0.9853 0.1115
vn 0.1287 0.9838 0.1249
vn 0.1292 0.9853 -0.1115
vn 0.1287 0.9838 -0.1249
vn 0.1145 0.9408 -0.3189
vn 0.1218 0.9646 -0.2338
vn 0.1090 0.9285 -0.3549
vn 0.0875 0.8690 -0.4870
vn 0.0970 0.8982 -0.4288
vn 0.0767 0.8485 -0.5237
vn 0.0483 0.7929 -0.6074
vn 0.0608 0.8193 -0.5702
vn 0.0297 0.7706 -0.6367
vn 0.0144 0.7227 -0.6910
vn -0.0000 0.7033 -0.7109
vn -0.0297 0.7706 0.6366
vn -0.0483 0.7929 0.6074
vn -0.0144 0.7227 0.6910
vn -0.0767 0.8485 0.5237
vn -0.0875 0.8690 0.4870
vn -0.0608 0.8193 0.5702
vn -0.1090 0.9285 0.3549
vn -0.1145 0.9408 0.3189
vn -0.0970 0.8982 0.4288
vn -0.1287 0.9838 0.1249
vn -0.1292 0.9853 0.1115
vn -0.1218 0.9646 0.2338
vn -0.1292 0.9853 -0.1115
vn -0.1287 0.9838 -0.1249
vn -0.1218 0.9646 -0.2338
vn -0.1090 0.9285 -0.3549
vn -0.1145 0.9408 -0.3189
vn -0.0970 0.8982 -0.4288
vn -0.0767 0.8485 -0.5237
vn -0.0875 0.8690 -0.4870
vn -0.0608 0.8193 -0.5702
vn -0.0297 0.7706 -0.6367
vn -0.0483 0.7929 -0.6074
vn -0.0144 0.7227 -0.6910
vn 0.0348 0.6718 0.7399
vn 0.0643 0.7563 0.6511
vn -0.0020 0.7121 0.7021
vn 0.0001 0.6720 0.7405
vn -0.0010 -0.7406 0.6720
vn -0.0000 -0.7406 0.6720
vn 0.8467 -0.3912 0.3605
vn 0.8466 -0.3918 0.3602
vn 0.8428 -0.4063 0.3530
vn 0.1000 0.8591 0.5020
vn -0.0024 0.8129 0.5823
vn 0.0840 0.8032 0.5897
vn 0.8861 -0.3098 0.3447
vn 0.8659 -0.3511 0.3563
vn 0.8659 -0.3510 0.3563
vn 0.1218 0.9377 0.3253
vn -0.0013 0.9180 0.3965
vn 0.1115 0.8913 0.4394
vn 0.9355 -0.2193 0.2769
vn 0.9357 -0.2190 0.2767
vn 0.9114 -0.2653 0.3146
vn 0.9114 -0.2652 0.3145
vn 0.1313 0.9849 0.1132
vn -0.0003 0.9898 0.1425
vn 0.1291 0.9625 0.2388
vn 0.9856 -0.1470 0.0837
vn 0.9587 -0.1820 0.2186
vn 0.9587 -0.1819 0.2185
vn 0.1313 0.9848 -0.1135
vn 0.0003 0.9898 -0.1425
vn 0.9856 -0.1470 -0.0837
vn 0.9856 -0.1470 -0.0838
vn 0.1241 0.9572 -0.2613
vn 0.1160 0.9295 -0.3502
vn 0.0013 0.9180 -0.3965
vn 0.9364 -0.2239 -0.2702
vn 0.9362 -0.2244 -0.2705
vn 0.9596 -0.1835 -0.2133
vn 0.9600 -0.1830 -0.2121
vn 0.1026 0.8769 -0.4696
vn 0.0889 0.8389 -0.5370
vn 0.0024 0.8129 -0.5823
vn 0.8860 -0.3166 -0.3389
vn 0.8857 -0.3173 -0.3389
vn 0.9105 -0.2725 -0.3110
vn 0.9113 -0.2712 -0.3097
vn 0.0719 0.7820 -0.6191
vn 0.0490 0.7271 -0.6848
vn 0.0020 0.7121 -0.7021
vn 0.8455 -0.3982 -0.3558
vn 0.8451 -0.3994 -0.3554
vn 0.8648 -0.3597 -0.3504
vn 0.8656 -0.3583 -0.3498
vn 0.0347 0.6714 -0.7402
vn -0.0001 0.6720 -0.7405
vn 0.0000 -0.7406 -0.6720
vn -0.0009 -0.7406 -0.6720
vn 0.8404 -0.4130 -0.3510
vn -0.0491 0.7271 0.6848
vn -0.0347 0.6714 0.7402
vn 0.0010 -0.7406 0.6720
vn -0.8404 -0.4130 0.3509
vn -0.8451 -0.3994 0.3553
vn -0.8455 -0.3982 0.3557
vn -0.0719 0.7820 0.6191
vn -0.8648 -0.3597 0.3504
vn -0.8656 -0.3583 0.3498
vn -0.0889 0.8389 0.5370
vn -0.8857 -0.3173 0.3389
vn -0.8860 -0.3166 0.3388
vn -0.1026 0.8769 0.4696
vn -0.9105 -0.2725 0.3110
vn -0.9113 -0.2712 0.3097
vn -0.1160 0.9295 0.3502
vn -0.9364 -0.2239 0.2702
vn -0.9362 -0.2244 0.2705
vn -0.1241 0.9572 0.2613
vn -0.9596 -0.1835 0.2133
vn -0.9600 -0.1829 0.2121
vn -0.1313 0.9848 0.1135
vn -0.9856 -0.1470 0.0837
vn -0.9856 -0.1470 0.0838
vn -0.1313 0.9849 -0.1132
vn -0.9856 -0.1470 -0.0837
vn -0.1218 0.9377 -0.3253
vn -0.1291 0.9625 -0.2388
vn -0.9587 -0.1820 -0.2186
vn -0.9587 -0.1819 -0.2185
vn -0.9355 -0.2193 -0.2769
vn -0.9357 -0.2190 -0.2768
vn -0.1000 0.8591 -0.5020
vn -0.1115 0.8913 -0.4394
vn -0.9114 -0.2653 -0.3146
vn -0.9114 -0.2652 -0.3145
vn -0.8861 -0.3098 -0.3447
vn -0.0643 0.7563 -0.6511
vn -0.0840 0.8032 -0.5897
vn -0.8659 -0.3511 -0.3563
vn -0.8659 -0.3510 -0.3563
vn -0.8467 -0.3912 -0.3605
vn -0.8466 -0.3918 -0.3602
vn -0.0348 0.6718 -0.7399
vn -0.8428 -0.4063 -0.3530
vn 0.0009 -0.7406 -0.6720
# 253 vertex normals

vt 0.0000 0.0000 0.0000
# 1 texture coords

o subtool6
g subtool6
usemtl default
s 1
f 1/1/1 2/1/2 3/1/2 4/1/3 
f 5/1/4 6/1/5 7/1/6 8/1/4 
f 9/1/4 10/1/7 6/1/5 5/1/4 
f 4/1/3 3/1/2 11/1/8 12/1/9 
f 3/1/2 13/1/10 14/1/11 11/1/8 
f 2/1/2 15/1/12 13/1/10 3/1/2 
f 16/1/13 5/1/4 8/1/4 17/1/14 
f 18/1/15 9/1/4 5/1/4 16/1/13 
f 12/1/9 19/1/16 20/1/17 4/1/3 
f 19/1/16 21/1/18 22/1/19 20/1/17 
f 21/1/18 23/1/20 24/1/21 22/1/19 
f 23/1/20 25/1/22 26/1/23 24/1/21 
f 27/1/24 28/1/25 26/1/23 25/1/22 
f 29/1/26 30/1/27 28/1/25 27/1/24 
f 31/1/28 32/1/29 30/1/27 29/1/26 
f 33/1/30 34/1/31 32/1/29 31/1/28 
f 18/1/15 16/1/13 34/1/31 33/1/30 
f 20/1/17 35/1/32 1/1/1 4/1/3 
f 22/1/19 36/1/33 35/1/32 20/1/17 
f 24/1/21 37/1/34 36/1/33 22/1/19 
f 26/1/23 38/1/35 37/1/34 24/1/21 
f 28/1/25 39/1/36 38/1/35 26/1/23 
f 28/1/25 30/1/27 40/1/37 39/1/36 
f 30/1/27 32/1/29 41/1/38 40/1/37 
f 32/1/29 34/1/31 42/1/39 41/1/38 
f 34/1/31 16/1/13 17/1/14 42/1/39 
s 2
f 43/1/40 44/1/41 15/1/42 2/1/43 
f 45/1/44 46/1/45 44/1/41 43/1/40 
f 47/1/46 48/1/47 46/1/45 45/1/44 
f 49/1/48 50/1/49 48/1/47 47/1/46 
f 51/1/50 52/1/51 50/1/49 49/1/48 
f 51/1/50 53/1/52 54/1/53 52/1/51 
f 53/1/52 55/1/54 56/1/55 54/1/53 
f 55/1/54 57/1/56 58/1/57 56/1/55 
f 57/1/56 8/1/58 7/1/59 58/1/57 
f 59/1/60 60/1/61 10/1/62 9/1/63 
f 61/1/64 62/1/65 60/1/61 59/1/60 
f 63/1/66 64/1/67 62/1/65 61/1/64 
f 65/1/68 66/1/69 64/1/67 63/1/66 
f 67/1/70 68/1/71 66/1/69 65/1/68 
f 67/1/70 69/1/72 70/1/73 68/1/71 
f 69/1/72 71/1/74 72/1/75 70/1/73 
f 71/1/74 73/1/76 74/1/77 72/1/75 
f 73/1/76 11/1/78 14/1/79 74/1/77 
f 1/1/80 35/1/81 43/1/40 2/1/43 
f 35/1/81 36/1/82 45/1/44 43/1/40 
f 36/1/82 37/1/83 47/1/46 45/1/44 
f 37/1/83 38/1/84 49/1/48 47/1/46 
f 39/1/85 51/1/50 49/1/48 38/1/84 
f 40/1/86 53/1/52 51/1/50 39/1/85 
f 41/1/87 55/1/54 53/1/52 40/1/86 
f 42/1/88 57/1/56 55/1/54 41/1/87 
f 17/1/89 8/1/58 57/1/56 42/1/88 
f 18/1/90 33/1/91 59/1/60 9/1/63 
f 33/1/91 31/1/92 61/1/64 59/1/60 
f 31/1/92 29/1/93 63/1/66 61/1/64 
f 29/1/93 27/1/94 65/1/68 63/1/66 
f 25/1/95 67/1/70 65/1/68 27/1/94 
f 23/1/96 69/1/72 67/1/70 25/1/95 
f 21/1/97 71/1/74 69/1/72 23/1/96 
f 19/1/98 73/1/76 71/1/74 21/1/97 
f 12/1/99 11/1/78 73/1/76 19/1/98 
s 1
f 15/1/12 44/1/100 75/1/101 76/1/102 
f 13/1/10 15/1/12 76/1/102 77/1/103 
f 78/1/104 75/1/101 44/1/100 
f 44/1/100 46/1/105 79/1/106 78/1/104 
f 80/1/107 79/1/106 46/1/105 
f 46/1/105 48/1/108 81/1/109 80/1/107 
f 82/1/110 81/1/109 48/1/108 
f 48/1/108 50/1/111 83/1/112 82/1/110 
f 50/1/111 52/1/113 84/1/114 83/1/112 
f 84/1/114 52/1/113 54/1/115 85/1/116 
f 85/1/116 54/1/115 86/1/117 
f 86/1/117 54/1/115 56/1/118 87/1/119 
f 87/1/119 56/1/118 88/1/120 
f 88/1/120 56/1/118 58/1/121 89/1/122 
f 89/1/122 58/1/121 90/1/123 
f 90/1/123 58/1/121 7/1/6 91/1/124 
f 91/1/124 7/1/6 6/1/5 92/1/125 
f 93/1/126 74/1/127 14/1/11 94/1/128 
f 94/1/128 14/1/11 13/1/10 77/1/103 
f 95/1/129 72/1/130 74/1/127 96/1/131 
f 96/1/131 74/1/127 93/1/126 
f 97/1/132 70/1/133 72/1/130 98/1/134 
f 98/1/134 72/1/130 95/1/129 
f 99/1/135 68/1/136 70/1/133 100/1/137 
f 100/1/137 70/1/133 97/1/132 
f 66/1/138 68/1/136 99/1/135 101/1/139 
f 102/1/140 103/1/141 64/1/142 
f 64/1/142 66/1/138 101/1/139 102/1/140 
f 104/1/143 105/1/144 62/1/145 
f 62/1/145 64/1/142 103/1/141 104/1/143 
f 106/1/146 107/1/147 60/1/148 
f 60/1/148 62/1/145 105/1/144 106/1/146 
f 6/1/5 10/1/7 108/1/149 92/1/125 
f 10/1/7 60/1/148 107/1/147 108/1/149 
f 109/1/150 110/1/151 111/1/152 112/1/153 
s 2
f 76/1/154 109/1/154 112/1/155 77/1/155 
s 4
f 75/1/156 110/1/157 109/1/158 76/1/158 
s 1
f 113/1/159 114/1/160 110/1/151 115/1/161 
s 4
f 79/1/162 113/1/162 115/1/163 78/1/164 
f 75/1/156 78/1/164 115/1/163 110/1/157 
s 1
f 110/1/151 114/1/160 111/1/152 
f 116/1/165 117/1/166 113/1/159 118/1/167 
s 4
f 81/1/168 116/1/169 118/1/170 80/1/171 
f 79/1/162 80/1/171 118/1/170 113/1/162 
s 1
f 113/1/159 117/1/166 114/1/160 
f 119/1/172 120/1/173 116/1/165 121/1/174 
s 4
f 83/1/175 119/1/175 121/1/176 82/1/177 
f 81/1/168 82/1/177 121/1/176 116/1/169 
s 1
f 116/1/165 120/1/173 117/1/166 
f 122/1/178 123/1/179 120/1/173 119/1/172 
s 4
f 84/1/180 122/1/181 119/1/175 83/1/175 
s 1
f 124/1/182 125/1/183 126/1/184 123/1/179 
s 4
f 86/1/185 125/1/186 124/1/187 85/1/188 
s 1
f 124/1/182 123/1/179 122/1/178 
s 4
f 84/1/180 85/1/188 124/1/187 122/1/181 
s 1
f 127/1/189 128/1/190 129/1/191 126/1/184 
s 4
f 88/1/192 128/1/193 127/1/194 87/1/195 
s 1
f 127/1/189 126/1/184 125/1/183 
s 4
f 86/1/185 87/1/195 127/1/194 125/1/186 
s 1
f 130/1/196 131/1/197 132/1/198 129/1/191 
s 4
f 90/1/199 131/1/200 130/1/201 89/1/202 
s 1
f 130/1/196 129/1/191 128/1/190 
s 4
f 89/1/202 130/1/201 128/1/193 88/1/192 
s 1
f 133/1/203 134/1/204 132/1/198 131/1/197 
s 2
f 92/1/205 134/1/205 133/1/206 91/1/206 
s 4
f 91/1/207 133/1/207 131/1/200 90/1/199 
s 1
f 111/1/152 135/1/208 136/1/209 112/1/153 
s 2
f 77/1/155 112/1/155 136/1/210 94/1/210 
s 4
f 94/1/211 136/1/211 135/1/212 93/1/213 
s 1
f 137/1/214 135/1/208 111/1/152 114/1/160 
s 4
f 93/1/213 135/1/212 137/1/215 96/1/216 
s 1
f 137/1/214 114/1/160 138/1/217 
s 4
f 96/1/216 137/1/215 138/1/218 95/1/219 
s 1
f 139/1/220 138/1/217 114/1/160 117/1/166 
s 4
f 95/1/219 138/1/218 139/1/221 98/1/222 
s 1
f 139/1/220 117/1/166 140/1/223 
s 4
f 97/1/224 98/1/222 139/1/221 140/1/225 
s 1
f 141/1/226 140/1/223 117/1/166 120/1/173 
s 4
f 97/1/224 140/1/225 141/1/227 100/1/228 
s 1
f 141/1/226 120/1/173 142/1/229 
s 4
f 99/1/230 100/1/228 141/1/227 142/1/231 
s 1
f 123/1/179 143/1/232 142/1/229 120/1/173 
s 4
f 99/1/230 142/1/231 143/1/233 101/1/233 
s 1
f 143/1/232 123/1/179 144/1/234 145/1/235 
s 4
f 101/1/233 143/1/233 145/1/236 102/1/237 
f 103/1/238 102/1/237 145/1/236 144/1/239 
s 1
f 144/1/234 123/1/179 126/1/184 
f 144/1/234 126/1/184 146/1/240 147/1/241 
s 4
f 103/1/238 144/1/239 147/1/242 104/1/243 
f 105/1/244 104/1/243 147/1/242 146/1/244 
s 1
f 146/1/240 126/1/184 129/1/191 
f 146/1/240 129/1/191 148/1/245 149/1/246 
s 4
f 105/1/244 146/1/244 149/1/247 106/1/248 
f 107/1/249 106/1/248 149/1/247 148/1/250 
s 1
f 148/1/245 129/1/191 132/1/198 
f 132/1/198 134/1/204 150/1/251 148/1/245 
s 4
f 107/1/249 148/1/250 150/1/252 108/1/252 
s 2
f 108/1/253 150/1/253 134/1/205 92/1/205 
# 136 polygons - 24 triangles

